<svg width="386" height="277" viewBox="0 0 386 277" fill="none" xmlns="http://www.w3.org/2000/svg">
<path fill-rule="evenodd" clip-rule="evenodd" d="M302.042 153.632V168.7L295.735 173.729L294.683 158.661C296.079 158.661 297.314 158.373 298.368 157.82C299.768 157.257 300.996 155.871 302.042 153.632ZM314.695 88.3159C314.35 88.3159 313.796 90.8239 313.091 95.8519C312.04 100.317 310.786 100.735 309.382 105.759C308.676 104.083 306.054 99.8653 304.295 98.1906C302.544 96.5146 298.252 95.5279 297.547 99.4293L302.042 116.784C301.698 116.231 300.819 115.952 299.415 115.945C298.012 115.392 296.079 115.113 293.632 115.108C292.29 101.015 289.482 102.691 287.031 101.015C284.224 98.7812 282.755 107.859 283.11 118.46C282.755 119.021 282.403 126.556 282.059 141.072C281.706 155.585 282.059 170.937 283.11 187.12C279.603 191.033 276.796 194.105 274.691 196.336C272.93 198.571 273.99 203.315 277.847 210.573C280.655 216.156 284.155 216.156 288.371 210.573C292.23 204.991 296.784 198.289 302.042 190.472L300.996 213.917C300.996 219.5 302.223 223.131 304.678 224.803C306.779 226.483 308.014 222.853 308.359 213.917V195.501C311.864 197.736 314.319 197.459 315.727 194.663C317.126 191.872 320.984 188.247 327.296 183.775C327.296 184.336 326.948 187.12 326.246 192.149C325.548 197.736 324.488 202.204 323.084 205.548C321.338 215.041 321.68 220.339 324.136 221.457C326.599 222.573 329.05 219.5 331.512 212.249C331.512 211.688 331.856 208.063 332.563 201.357C332.911 194.105 333.264 187.128 333.61 180.427C333.61 179.869 334.668 179.031 336.77 177.916C338.518 176.8 340.631 175.963 343.078 175.401L343.146 262.927C343.503 271.296 345.604 275.764 349.466 276.321C353.316 277.436 355.072 273.529 354.728 264.603L354.66 172.052C354.66 171.495 356.412 171.215 359.918 171.215C363.07 170.66 366.932 170.38 371.492 170.376C373.947 169.823 376.224 170.1 378.335 171.215C380.78 171.776 383.067 168.7 385.168 162.007C385.168 157.539 382.012 154.475 375.695 152.795C369.739 150.56 363.423 150.841 356.762 153.632C356.412 150.28 355.707 148.049 354.66 146.927C353.248 145.251 351.848 144.705 350.446 145.251C350.446 144.705 350.974 144.144 352.024 143.583C353.428 142.467 355.006 141.907 356.762 141.907C360.263 139.676 362.726 136.048 364.126 131.021C365.524 126 363.776 121.257 358.867 116.784C363.423 110.648 365.176 105.621 364.126 101.716C363.423 97.8106 360.968 95.0199 356.762 93.3359C356.762 92.7812 357.639 91.1132 359.388 88.3159C360.792 85.5239 362.726 82.1733 365.176 78.2693C365.524 78.2693 366.751 76.8692 368.86 74.0772C370.61 71.2892 369.739 67.1052 366.227 61.5226C364.827 59.8466 362.726 57.6106 359.918 54.8199C356.762 52.5893 353.955 54.8199 351.496 61.5226C343.431 78.8279 338.348 91.3826 336.239 99.2012C334.142 107.015 332.563 111.759 331.512 113.435C331.512 112.88 331.155 112.048 330.458 110.927C329.755 109.812 328.7 108.973 327.296 108.412C327.296 107.859 327.826 105.621 328.876 101.716C329.927 97.2479 331.512 93.3426 333.61 89.9919C334.315 89.9919 336.064 88.5999 338.871 85.8026C341.679 82.4586 341.326 77.7079 337.82 71.5653C337.467 69.8946 335.719 66.8266 332.563 62.3546C329.403 58.4493 326.948 58.1786 325.195 61.5226C324.843 61.5226 324.136 63.4759 323.084 67.3826C321.68 71.2892 319.934 75.4786 317.832 79.9439L314.695 88.3159ZM343.078 120.136C340.271 122.932 338.871 126.279 338.871 130.185C338.871 133.533 339.219 137.441 339.926 141.907C339.572 141.907 338.17 143.867 335.719 147.769C333.264 151.679 331.512 154.747 330.458 156.985L327.296 151.956C329.05 145.82 330.624 139.956 332.028 134.375C333.436 128.792 334.668 124.047 335.719 120.136H343.078ZM345.183 146.927C344.839 146.927 344.658 148.049 344.658 150.28C344.308 152.517 344.132 154.747 344.132 156.985L335.719 160.329L332.563 156.985C333.962 156.424 335.719 154.475 337.82 151.117C339.926 147.769 342.38 146.373 345.183 146.927ZM325.195 160.329V162.84C324.843 164.513 323.791 166.469 322.035 168.7C321.68 168.7 319.752 170.1 316.251 172.891C313.091 176.243 310.108 179.316 307.307 182.099V173.729C308.014 173.163 308.535 168.423 308.884 159.496C308.884 150.003 308.712 136.884 308.359 120.136L308.884 120.975C308.884 122.093 309.056 123.488 309.41 125.159C309.056 128.508 309.935 130.744 312.04 131.861C314.15 133.533 316.424 132.415 318.879 128.508C318.53 128.508 318 131.021 317.302 136.048C316.596 140.519 315.727 145.251 314.672 150.28C314.319 157.539 315.374 163.125 317.832 167.027C320.287 170.937 322.74 168.7 325.195 160.329ZM298.895 126.832C298.542 126.832 297.836 128.792 296.784 132.697C295.735 136.048 294.683 138.556 293.632 140.233V123.488L295.735 124.317C297.128 124.885 298.184 125.723 298.895 126.832ZM302.042 146.927C301.698 146.373 300.996 145.82 299.936 145.251L295.735 143.583C295.735 143.028 296.259 141.907 297.314 140.233C298.368 137.999 299.936 135.211 302.042 131.861V146.927Z" fill="#A3941F"/>
<path fill-rule="evenodd" clip-rule="evenodd" d="M212.508 45.7779C210.692 46.3259 209.781 47.3325 209.781 48.7819C209.781 49.9485 210.431 50.4859 211.727 50.3885L242.379 40.9165C239.271 48.2632 235.633 55.6179 231.485 62.9859C227.595 69.9872 223.184 76.7005 218.259 83.1339C216.183 85.7979 212.248 89.1259 211.727 91.0299C211.208 92.6445 211.727 93.5045 213.287 93.6192C216.143 91.8872 219.255 89.0552 222.623 85.1259C226 80.9085 228.847 77.5752 231.189 75.1192V116.195C231.445 119.031 232.609 120.137 234.687 119.511C236.763 119.182 237.827 117.223 238.08 113.882V68.4339C242.491 72.0632 246.484 75.3259 248.307 76.5232C249.911 77.6859 254.021 76.8912 255.309 74.8539C256.952 72.3459 257.056 69.5085 254.455 68.2432C251.603 66.7752 245.924 65.7219 238.151 63.6952L249.084 41.7619C250.119 39.4112 249.601 37.6832 249.084 36.9619C248.507 36.0365 247.745 35.3019 246.747 35.4752L212.508 45.7779ZM234.567 34.4925C235.248 31.2099 234.092 15.0552 234.092 15.0552C234.117 12.6872 232.753 10.7219 229.621 11.3699C227.035 12.1499 224.764 13.7779 225.337 17.0272L228.503 26.9872C229.907 31.3965 233.684 38.7699 234.567 34.4925ZM306.507 92.6672C308.319 91.8285 309.225 90.8245 309.233 89.6565C309.233 88.4939 308.319 88.0392 306.507 88.2939L280.991 95.9659V40.9019L300.451 35.0485C302.003 34.2925 302.784 33.3259 302.784 32.1645C303.041 30.6272 302.263 30.1379 300.451 30.6792L280.991 36.5325V2.44721C280.213 0.351212 278.785 -0.38212 276.712 0.240547C274.377 0.64988 272.951 2.24588 272.436 5.02321V39.1085L253.757 44.7312C251.683 45.0619 250.508 45.8525 250.248 47.0952C250.248 48.2632 251.415 48.9325 253.757 49.0992L272.436 43.4779V98.5379L248.307 105.807C245.972 106.505 244.805 107.581 244.805 109.042C244.805 110.202 245.711 110.661 247.528 110.411L306.507 92.6672Z" fill="#308194"/>
<path fill-rule="evenodd" clip-rule="evenodd" d="M207.375 196.36C207.375 203.026 205.152 207.958 200.71 211.15C196.27 214.32 190.092 215.898 182.176 215.898C177.646 215.898 173.834 215.634 170.719 215.113C167.611 214.576 165.038 213.914 163.016 213.108V202.276C164.598 203.253 167.079 204.148 170.476 204.99C173.856 205.793 177.19 206.193 180.468 206.193C185.076 206.193 188.251 205.584 189.964 204.365C191.716 203.137 192.588 201.109 192.588 198.277C192.588 196.44 191.971 194.824 190.718 193.409C189.463 191.993 185.911 190.112 180.058 187.777C175.39 185.897 171.775 183.494 169.223 180.574C166.662 177.626 165.391 173.637 165.391 168.58C165.391 163.746 167.442 159.664 171.558 156.328C175.687 152.998 181.398 151.338 188.676 151.338C192.202 151.338 195.367 151.626 198.171 152.213C201.007 152.766 202.987 153.264 204.126 153.704V163.289C201.736 162.708 199.366 162.194 197.004 161.741C194.638 161.301 192.132 161.08 189.463 161.08C185.69 161.08 182.967 161.661 181.298 162.832C179.634 163.996 178.802 165.46 178.802 167.204C178.802 169.429 179.428 171.11 180.68 172.241C181.922 173.388 185.592 175.064 191.671 177.282C197.34 179.344 201.367 181.95 203.752 185.114C206.172 188.254 207.375 192.005 207.375 196.36Z" fill="#308194"/>
<path fill-rule="evenodd" clip-rule="evenodd" d="M154.089 213.361C153.119 214.002 151.356 214.6 148.804 215.194C146.243 215.796 143.285 216.104 139.928 216.104C131.456 216.104 124.54 213.493 119.184 208.276C113.851 203.026 111.187 195.333 111.187 185.196V182.653C111.187 173.221 113.897 165.64 119.311 159.913C124.749 154.198 131.567 151.338 139.76 151.338C143.285 151.338 146.231 151.54 148.589 151.956C150.951 152.349 152.784 152.87 154.089 153.537V163.538C152.899 162.905 151.269 162.336 149.219 161.83C147.185 161.325 144.803 161.081 142.048 161.081C136.941 161.081 132.947 163.065 130.052 167.036C127.193 171.014 125.765 176.489 125.765 183.496C125.765 191.869 127.092 197.404 129.764 200.989C132.457 204.566 136.119 206.362 140.764 206.362C143.896 206.362 146.58 206.05 148.804 205.445C151.021 204.806 152.784 204.209 154.089 203.652V213.361Z" fill="#308194"/>
<path fill-rule="evenodd" clip-rule="evenodd" d="M110.466 215.065H93.8482L75.4376 191.949L73.3456 194.572V215.065H59.1909V152.213H73.3456V178.659L92.9669 152.213H107.051L83.2629 181.615L110.466 215.065Z" fill="#308194"/>
<path fill-rule="evenodd" clip-rule="evenodd" d="M44.5248 215.065H30.3702V188.027H14.3302V215.065H0.172852V152.213H14.3302V178.361H30.3702V152.213H44.5248V215.065Z" fill="#308194"/>
<path fill-rule="evenodd" clip-rule="evenodd" d="M260.405 196.36C260.405 203.026 258.18 207.958 253.736 211.15C249.293 214.32 243.116 215.898 235.2 215.898C230.672 215.898 226.858 215.634 223.75 215.113C220.634 214.576 218.062 213.914 216.042 213.108V202.276C217.626 203.253 220.112 204.148 223.496 204.99C226.889 205.793 230.218 206.193 233.49 206.193C238.102 206.193 241.272 205.584 242.992 204.365C244.745 203.137 245.61 201.109 245.61 198.277C245.61 196.44 244.993 194.824 243.742 193.409C242.49 191.993 238.933 190.112 233.082 187.777C228.414 185.897 224.801 183.494 222.246 180.574C219.688 177.626 218.416 173.637 218.416 168.58C218.416 163.746 220.465 159.664 224.584 156.328C228.718 152.998 234.43 151.338 241.705 151.338C245.226 151.338 248.393 151.626 251.198 152.213C254.033 152.766 256.014 153.264 257.161 153.704V163.289C254.766 162.708 252.392 162.194 250.034 161.741C247.672 161.301 245.157 161.08 242.49 161.08C238.716 161.08 235.993 161.661 234.329 162.832C232.656 163.996 231.834 165.46 231.834 167.204C231.834 169.429 232.457 171.11 233.709 172.241C234.95 173.388 238.616 175.064 244.705 177.282C250.364 179.344 254.385 181.95 256.776 185.114C259.198 188.254 260.405 192.005 260.405 196.36Z" fill="#308194"/>
</svg>
